<svg width="20" height="20" fill="none" xmlns="http://www.w3.org/2000/svg"><path d="M19.929 18.25l-4.046-3.564a9.222 9.222 0 001.834-5.56c0-2.44-.925-4.728-2.596-6.452C13.45.949 11.223 0 8.858 0 6.493 0 4.267.952 2.595 2.674.921 4.395 0 6.686 0 9.125c0 2.437.924 4.73 2.595 6.452 1.672 1.725 3.895 2.674 6.263 2.674a8.621 8.621 0 005.395-1.886l4.046 3.562a.24.24 0 00.171.073.237.237 0 00.172-.073l1.287-1.323a.252.252 0 00.053-.272.25.25 0 00-.053-.081zm-6.394-4.306c-1.252 1.286-2.911 1.995-4.677 1.995-1.765 0-3.425-.709-4.677-1.995a6.882 6.882 0 01-1.937-4.819c0-1.819.688-3.531 1.937-4.818 1.252-1.286 2.912-1.995 4.677-1.995 1.766 0 3.428.705 4.677 1.995a6.882 6.882 0 011.937 4.818 6.877 6.877 0 01-1.937 4.819z" fill="#fff"/></svg>